<svg width="2019" height="2162" viewBox="0 0 2019 2162" fill="none" xmlns="http://www.w3.org/2000/svg">
<g clip-path="url(#clip0)">
<rect width="2018.47" height="2162" fill="white"/>
<path d="M1535.69 995.643C1517.89 989.542 1499.9 983.842 1481.9 978.642C1484.9 966.441 1487.7 954.241 1490.2 941.94C1530.99 744.13 1504.3 584.722 1413.33 532.219C1338.05 488.817 1221.38 522.019 1098.22 612.623L1101.42 700.828C1219.08 602.923 1327.25 565.021 1377.64 594.122C1433.62 626.424 1455.41 756.631 1420.22 927.539C1417.92 938.64 1415.42 949.74 1412.73 960.741C1343.35 944.74 1268.07 932.84 1189.19 925.439C1161.8 886.437 1133.81 849.535 1105.62 815.234L1107.22 860.236C1122.01 877.237 1130.91 899.338 1130.91 923.539C1130.91 938.44 1127.51 952.541 1121.51 965.141C1125.01 973.842 1127.51 982.942 1129.11 992.243C1136.01 992.643 1142.81 993.143 1149.6 993.643C1178 1035.54 1204.79 1078.45 1230.18 1122.35C1255.67 1166.25 1279.67 1211.05 1302.26 1256.56C1279.97 1302.56 1255.97 1347.66 1230.38 1391.96C1205.09 1435.97 1178.3 1479.17 1150.2 1521.47C1143.81 1521.97 1137.31 1522.37 1130.81 1522.77L1134.71 1666.08C1153.3 1641.78 1171.7 1616.37 1189.99 1589.97C1270.87 1582.77 1347.15 1571.07 1416.42 1555.07C1419.82 1568.87 1422.82 1582.37 1425.52 1595.57C1442.22 1680.08 1444.62 1756.58 1433.52 1816.28C1423.52 1869.99 1403.53 1905.79 1378.74 1920.09C1333.05 1946.59 1242.18 1920.19 1139.51 1844.39L1141.91 1932.59C1248.77 2000.09 1347.55 2020.6 1414.53 1981.79C1504.2 1929.89 1533.39 1772.68 1495.5 1581.47C1492.6 1566.87 1489.2 1551.97 1485.5 1536.77C1496.1 1533.67 1506.5 1530.37 1516.59 1527.07C1708.24 1463.57 1833 1360.86 1833 1255.76C1832.9 1155.25 1716.23 1057.85 1535.69 995.643ZM1291.86 1086.65C1275.57 1058.45 1258.57 1030.54 1240.98 1003.04C1294.36 1009.74 1345.45 1018.74 1393.43 1029.74C1379.04 1075.95 1361.04 1124.25 1339.95 1173.75C1324.55 1144.35 1308.46 1115.35 1291.86 1086.65ZM1240.78 1512.87C1258.47 1484.87 1275.57 1456.47 1292.06 1427.76C1308.86 1398.56 1325.05 1369.06 1340.55 1339.16C1362.94 1390.16 1381.73 1439.37 1396.73 1486.27C1348.34 1497.37 1295.96 1506.27 1240.78 1512.87ZM1494.1 1459.47C1485 1462.47 1475.61 1465.47 1466.01 1468.27C1444.82 1401.26 1416.32 1329.96 1381.34 1256.36C1414.73 1184.45 1442.12 1114.15 1462.71 1047.55C1479.81 1052.55 1496.4 1057.75 1512.4 1063.25C1667.15 1116.55 1761.52 1195.25 1761.52 1255.96C1761.52 1320.66 1659.55 1404.56 1494.1 1459.47Z" fill="#3401F9"/>
<path d="M853.593 1849.69C810.806 1879.99 769.218 1902.39 730.93 1915.89C679.445 1934.09 638.457 1934.59 613.665 1920.29C560.88 1889.89 538.987 1772.38 568.878 1614.87C572.477 1596.27 576.476 1577.77 581.074 1559.37C649.554 1574.57 725.331 1585.47 806.407 1591.97C823.502 1616.07 840.997 1639.48 858.591 1662.08L862.39 1524.17C856.692 1523.87 851.094 1523.47 845.495 1523.17C816.604 1480.97 789.412 1437.77 763.82 1393.46C738.327 1349.46 714.534 1304.56 692.441 1258.66C714.434 1212.85 738.127 1167.85 763.52 1123.85C788.912 1079.85 815.904 1036.74 844.596 994.743C851.294 994.243 857.992 993.743 864.79 993.343C866.389 983.942 868.888 974.842 872.387 966.141C866.389 953.541 862.99 939.44 862.99 924.639C862.99 900.838 871.588 879.037 885.883 862.136L887.483 818.734C859.491 852.535 831.999 888.537 805.207 926.439C726.531 933.739 651.253 945.44 582.074 961.141C577.775 944.04 573.977 926.839 570.578 909.638C539.187 749.03 559.981 627.824 612.565 597.422C664.05 567.621 773.117 604.423 891.781 700.928L894.98 613.423C770.318 523.818 652.553 491.717 576.776 535.619C489.602 586.122 463.809 735.929 500.498 923.439C504.197 942.04 508.296 960.441 512.895 978.842C491.501 984.942 470.807 991.442 451.013 998.343C273.966 1060.05 161 1156.85 161 1257.16C161 1360.86 282.364 1464.77 466.709 1527.87C481.704 1532.97 496.7 1537.67 511.895 1541.97C506.997 1561.77 502.598 1581.67 498.799 1601.67C463.809 1785.88 491.101 1932.19 578.075 1982.39C644.555 2020.7 744.326 2001.49 851.294 1936.89L853.593 1849.69ZM702.038 1429.26C718.833 1458.27 736.328 1486.97 754.522 1515.17C699.739 1509.07 648.154 1500.77 600.469 1490.37C615.264 1442.67 633.459 1393.16 654.652 1342.76C669.748 1371.86 685.543 1400.76 702.038 1429.26ZM753.023 1003.94C735.328 1031.64 718.233 1059.75 701.738 1088.25C685.343 1116.75 669.648 1145.55 654.552 1174.75C633.759 1125.45 615.964 1076.85 601.468 1030.04C649.154 1019.24 700.039 1010.54 753.023 1003.94ZM531.089 1472.97C517.194 1468.97 503.498 1464.67 489.802 1460.07C408.226 1432.17 340.946 1395.96 294.76 1356.46C253.272 1320.96 232.379 1285.66 232.379 1257.06C232.379 1196.15 323.152 1118.45 474.506 1065.65C493.501 1059.05 512.695 1053.05 532.089 1047.55C552.983 1115.65 580.475 1186.75 613.565 1258.76C580.075 1331.76 552.183 1404.06 531.089 1472.97Z" fill="#3401F9"/>
<path d="M951.764 1389.16L950.764 1416.46H940.667C933.569 1416.46 927.771 1422.26 927.771 1429.37V1443.57C927.771 1450.67 933.569 1456.47 940.667 1456.47H949.264L936.968 1905.99C955.063 1902.59 975.356 1900.69 996.75 1900.69C1018.04 1900.69 1038.14 1902.59 1056.13 1905.99L1043.84 1456.47H1053.13C1060.23 1456.47 1066.03 1450.67 1066.03 1443.57V1429.37C1066.03 1422.26 1060.23 1416.46 1053.13 1416.46H1042.34L1041.34 1389.46C1084.82 1371.86 1115.51 1329.26 1115.51 1279.36C1115.51 1226.45 1080.92 1181.65 1033.24 1166.35L1032.74 1152.55H1053.13C1060.23 1152.55 1066.03 1146.75 1066.03 1139.65V1125.45C1066.03 1118.35 1060.23 1112.55 1053.13 1112.55H1045.74V1102.05V1101.45V1052.55V1014.54C1045.74 1000.04 1039.44 987.042 1029.54 978.142C1028.44 977.142 1027.34 976.242 1026.24 975.442L1024.74 935.24H1034.14C1040.54 935.24 1045.74 930.039 1045.74 923.639C1045.74 917.239 1040.54 912.039 1034.14 912.039H1023.94L996.65 160L969.258 911.939H959.761C953.363 911.939 948.165 917.139 948.165 923.539C948.165 929.939 953.363 935.14 959.761 935.14H968.459L966.859 976.042C955.462 985.042 948.065 998.943 948.065 1014.54V1037.14V1052.55V1075.15V1101.45V1112.45H940.667C933.569 1112.45 927.771 1118.25 927.771 1125.35V1139.55C927.771 1146.65 933.569 1152.45 940.667 1152.45H960.361L959.861 1166.55C912.475 1182.15 878.286 1226.75 878.286 1279.36C878.286 1328.96 908.676 1371.36 951.764 1389.16Z" fill="#3401F9"/>
</g>
<defs>
<clipPath id="clip0">
<rect width="2018.47" height="2162" fill="white"/>
</clipPath>
</defs>
</svg>
