<?xml version="1.0" encoding="UTF-8" standalone="no"?>
<svg xmlns:dc="http://purl.org/dc/elements/1.1/"
  xmlns:cc="http://creativecommons.org/ns#"
  xmlns:rdf="http://www.w3.org/1999/02/22-rdf-syntax-ns#"
  xmlns:svg="http://www.w3.org/2000/svg"
  xmlns="http://www.w3.org/2000/svg" viewBox="0 0 244 150.84132" height="244" width="244" xml:space="preserve" id="svg2" version="1.1">
  <metadata id="metadata8">
    <rdf:RDF>
      <cc:Work rdf:about="">
        <dc:format>image/svg+xml</dc:format>
        <dc:type rdf:resource="http://purl.org/dc/dcmitype/StillImage" />
      </cc:Work>
    </rdf:RDF>
  </metadata>
  <defs id="defs6">
    <clipPath id="clipPath18" clipPathUnits="userSpaceOnUse">
      <path id="path16" d="M 0,113.131 H 183 V 0 H 0 Z" />
    </clipPath>
  </defs>
  <g transform="matrix(1.3333333,0,0,-1.3333333,0,150.84133)" id="g10">
    <g id="g12">
      <g clip-path="url(#clipPath18)" id="g14">
        <g transform="translate(55.6014,32.7286)" id="g20">
          <path id="path22" style="fill:#eb17ff;fill-opacity:1;fill-rule:nonzero;stroke:none" d="m 0,0 -7.753,-1.228 -0.04,-2.655 c -1.873,2.007 -4.82,2.807 -7.686,2.353 -7.921,-1.255 -12.56,-9.419 -12.583,-16.908 0.003,-7.66 4.596,-14.476 12.686,-13.195 2.865,0.454 5.815,2.188 7.491,4.699 l 0.113,0.018 0.006,-2.59 7.753,1.228 z m -13.558,-24.204 c -4.045,-0.641 -6.484,3.12 -6.508,6.916 -0.027,3.797 2.489,8.284 6.534,8.925 4.045,0.641 6.529,-3.055 6.555,-6.851 0.026,-3.797 -2.536,-8.348 -6.581,-8.99 m 19.218,-3.176 7.865,1.246 -0.015,2.647 0.112,0.017 c 1.593,-2.051 4.54,-2.851 7.35,-2.406 8.145,1.29 12.775,9.51 12.762,17.225 C 33.767,-1.217 28.958,5.508 21.149,4.271 18.229,3.808 15.343,2.027 13.547,-0.446 L 13.509,51.206 5.644,49.961 Z m 13.59,8.372 c -4.045,-0.639 -6.482,3.12 -6.509,6.917 -0.024,3.797 2.489,8.284 6.534,8.924 4.045,0.641 6.474,-3.062 6.5,-6.86 0.026,-3.797 -2.48,-8.34 -6.525,-8.981 M 49.97,8.836 C 41.373,7.474 35.489,0.265 35.502,-8.544 c 0.005,-8.753 5.807,-14.111 14.457,-12.741 8.652,1.37 14.536,8.58 14.532,17.332 C 64.479,4.856 58.564,10.197 49.97,8.836 M 50.005,1.7 c 4.045,0.641 6.521,-2.998 6.509,-6.916 -0.031,-3.805 -2.49,-8.284 -6.535,-8.925 -4.043,-0.64 -6.53,3.055 -6.499,6.861 0.012,3.918 2.48,8.341 6.525,8.98 M 68.032,10.775 68.02,-5.87 c -0.021,-8.238 4.13,-11.9 12.333,-10.601 8.202,1.299 12.366,6.278 12.385,14.516 l 0.013,16.645 -7.865,-1.245 0.008,-15.318 c -0.008,-3.226 -0.536,-7.168 -4.525,-7.8 -3.987,-0.632 -4.472,3.151 -4.465,6.376 l -0.007,15.318 z m 39.027,-0.614 4.832,0.765 0.016,6.798 -4.831,-0.765 -0.016,9.557 -7.866,-1.245 0.017,-9.558 -2.696,-0.427 -0.018,-6.798 2.696,0.427 0.005,-21.479 7.865,1.245 z m 12.868,-10.344 c -2.753,-0.436 -4.99,-3.036 -5.004,-5.86 -0.014,-2.824 2.262,-4.825 5.015,-4.389 2.751,0.436 4.971,3.149 4.985,5.973 0.014,2.824 -2.243,4.712 -4.996,4.276 m -4.009,2.763 7.978,1.264 -0.003,30.925 -7.978,-1.264 z" />
        </g>
        <g transform="translate(19.1463,83.795)" id="g24">
          <path id="path26" style="fill:#eb17ff;fill-opacity:1;fill-rule:nonzero;stroke:none" d="m 0,0 8.539,1.353 -0.015,7.368 -25.336,-4.013 0.014,-7.368 8.54,1.352 0.008,-36.048 8.258,1.307 z m 11.339,14.581 0.017,-48.833 7.865,1.246 -0.027,13.989 c 0.037,3.404 0.108,8.771 4.771,9.51 4.438,0.703 4.272,-3.701 4.235,-7.104 l 0.01,-14.972 7.865,1.246 0.028,17.281 c -0.004,6.565 -2.18,11.576 -9.595,10.401 -2.809,-0.445 -5.523,-1.853 -7.19,-4.421 l -0.112,-0.018 -0.002,22.92 z m 34.705,1.58 c -2.584,-0.409 -4.661,-2.926 -4.711,-5.526 0.017,-2.646 2.087,-4.449 4.672,-4.04 2.584,0.41 4.67,2.871 4.654,5.517 0.049,2.6 -2.03,4.459 -4.615,4.049 m 17.74,-13.833 -7.865,-1.246 -0.013,-28.278 7.865,1.246 -0.028,13.989 c 0.037,3.404 0.11,8.771 4.772,9.51 4.438,0.703 4.271,-3.701 4.234,-7.104 l 0.011,-14.972 7.865,1.246 L 80.652,-6 C 80.649,0.565 78.473,5.576 71.057,4.401 68.248,3.956 65.534,2.548 63.903,-0.245 l -0.112,-0.018 z m 30.306,25.359 -7.865,-1.246 0.017,-48.832 7.865,1.245 -0.004,12.036 0.111,0.017 9.051,-10.602 10.338,1.637 -12.504,13.857 11.617,14.279 L 102.491,8.459 94.205,-3.22 94.093,-3.238 Z" />
        </g>
      </g>
    </g>
  </g>
</svg>